<svg width="20" height="21" viewBox="0 0 20 21" fill="none" xmlns="http://www.w3.org/2000/svg">
<rect y="0.941101" width="20" height="20" rx="4" fill="white" fill-opacity="0.6"/>
<path d="M14.2847 11.2883C13.2542 12.5186 11.7917 13.8866 9.99627 15.5485C8.20451 13.8866 6.74399 12.5188 5.71446 11.2885C4.63232 9.99529 4.1 8.93747 4.1 7.93701C4.1 6.56806 5.08625 5.57598 6.4 5.57598C7.4311 5.57598 8.44102 6.27138 8.78882 7.18331L8.91157 7.50513H9.256H10.744H11.0884L11.2112 7.18331C11.559 6.27138 12.5689 5.57598 13.6 5.57598C14.9137 5.57598 15.9 6.56806 15.9 7.93701C15.9 8.93741 15.3677 9.99521 14.2847 11.2883ZM9.65971 16.6003L10.0166 16.9319L10.3573 16.5837L10.4287 16.5108C12.3201 14.7609 13.9241 13.2762 15.0513 11.9304C16.1763 10.5873 16.9 9.29902 16.9 7.93701C16.9 6.03621 15.4863 4.57598 13.6 4.57598C12.2873 4.57598 11.0105 5.36447 10.421 6.50513H9.57903C8.98949 5.36447 7.71272 4.57598 6.4 4.57598C4.51375 4.57598 3.1 6.03621 3.1 7.93701C3.1 9.29896 3.82368 10.5872 4.94754 11.9302C6.07153 13.2734 7.66961 14.7551 9.55231 16.5006L9.57171 16.5186L9.57206 16.5189L9.65971 16.6003ZM9.61714 5.46296L10 5.91877L10.3829 5.46296C11.1648 4.53205 12.3632 3.9411 13.6 3.9411C15.7783 3.9411 17.5 5.67765 17.5 7.93701C17.5 9.317 16.8953 10.6103 15.7346 12.0613C14.568 13.5197 12.8898 15.0776 10.8202 16.9953L10.8195 16.996L10 17.7582L9.18054 16.996L9.17983 16.9953C7.11017 15.0776 5.43202 13.5197 4.26545 12.0613C3.10468 10.6103 2.5 9.317 2.5 7.93701C2.5 5.67765 4.22166 3.9411 6.4 3.9411C7.6368 3.9411 8.83521 4.53205 9.61714 5.46296Z" fill="#065CF3" stroke="#065CF3"/>
</svg>
