<svg width="24" height="24" viewBox="0 0 24 24" fill="none" xmlns="http://www.w3.org/2000/svg">
<path d="M6.00068 8C6.26611 8.00006 6.52065 8.10334 6.70831 8.28714L11.2984 12.7815C11.4887 12.9603 11.7423 13.0602 12.006 13.0602C12.2698 13.0602 12.5234 12.9603 12.7137 12.7815L17.3038 8.28714C17.4925 8.10863 17.7454 8.00985 18.0078 8.01208C18.2702 8.01431 18.5213 8.11738 18.7068 8.29908C18.8924 8.48078 18.9977 8.72658 19 8.98353C19.0022 9.24049 18.9014 9.48804 18.719 9.67287L14.1289 14.1672C13.5568 14.7017 12.7964 15 12.0055 15C11.2147 15 10.4543 14.7017 9.88215 14.1672L5.29305 9.67287C5.15311 9.53581 5.05782 9.36121 5.01922 9.17114C4.98062 8.98106 5.00044 8.78405 5.07618 8.605C5.15191 8.42596 5.28017 8.27291 5.44473 8.16523C5.60928 8.05754 5.80275 8.00004 6.00068 8Z" fill="#242F7B"/>
</svg>
