<svg width="25" height="24" viewBox="0 0 25 24" fill="none" xmlns="http://www.w3.org/2000/svg">
<path d="M16.3196 5.93463C16.3195 6.19983 16.2141 6.45414 16.0266 6.64163L11.4406 11.2276C11.2581 11.4178 11.1562 11.6711 11.1562 11.9346C11.1562 12.1982 11.2581 12.4515 11.4406 12.6416L16.0266 17.2276C16.2087 17.4162 16.3095 17.6688 16.3072 17.931C16.305 18.1932 16.1998 18.444 16.0144 18.6294C15.829 18.8149 15.5782 18.92 15.316 18.9223C15.0538 18.9246 14.8012 18.8238 14.6126 18.6416L10.0266 14.0556C9.4811 13.484 9.17676 12.7243 9.17676 11.9341C9.17676 11.144 9.4811 10.3843 10.0266 9.81263L14.6126 5.22763C14.7524 5.08782 14.9306 4.99262 15.1245 4.95405C15.3185 4.91548 15.5195 4.93528 15.7022 5.01095C15.8849 5.08662 16.0411 5.21476 16.151 5.37917C16.2609 5.54358 16.3195 5.73688 16.3196 5.93463Z" fill="#242F7B"/>
</svg>
