<svg width="24" height="24" viewBox="0 0 24 24" fill="none" xmlns="http://www.w3.org/2000/svg">
<path d="M8.7132 4.7994C8.52573 4.98709 8.42041 5.24163 8.42041 5.50703C8.42041 5.77243 8.52573 6.02697 8.7132 6.21466L13.2992 10.8048C13.4817 10.9951 13.5836 11.2486 13.5836 11.5124C13.5836 11.7762 13.4817 12.0297 13.2992 12.22L8.7132 16.8101C8.53104 16.9989 8.43024 17.2517 8.43252 17.5142C8.4348 17.7766 8.53997 18.0276 8.72538 18.2132C8.91079 18.3988 9.1616 18.504 9.4238 18.5063C9.68599 18.5086 9.9386 18.4077 10.1272 18.2254L14.7132 13.6363C14.9918 13.3575 15.2129 13.0264 15.3636 12.6621C15.5144 12.2977 15.5921 11.9073 15.5921 11.5129C15.5921 11.1185 15.5144 10.728 15.3636 10.3637C15.2129 9.99936 14.9918 9.66833 14.7132 9.38949L10.1272 4.79939C9.93967 4.61176 9.68536 4.50635 9.4202 4.50635C9.15503 4.50635 8.90072 4.61176 8.7132 4.7994Z" fill="#242F7B"/>
</svg>
