<svg width="344" height="80" viewBox="0 0 344 80" fill="none" xmlns="http://www.w3.org/2000/svg">
<path d="M94.2762 42.6692C93.5324 45.0661 91.3835 47.6558 89.2346 48.6751C84.3858 51.0444 78.187 49.0333 75.983 44.3773L75.3769 43.0825L0 42.9447L0.1653 36.746L75.3769 36.6082L76.1759 35.093C77.1401 33.2471 78.6554 31.8145 80.7216 30.8503C82.044 30.2442 82.6226 30.134 84.8817 30.134C87.1959 30.134 87.6918 30.2166 89.0693 30.9054C91.0804 31.8972 93.2018 34.1838 93.9456 36.195C94.5517 37.7929 94.717 41.2091 94.2762 42.6692ZM88.2152 37.7378C87.3336 36.4705 86.3418 35.947 84.9368 35.947C82.6226 35.947 81.0247 37.6 81.0247 39.9142C81.0247 43.4957 85.5704 45.1487 87.9948 42.4488C89.0693 41.2642 89.1795 39.0602 88.2152 37.7378Z" fill="#1A1B22"/>
<path d="M73.3065 74.9305C72.2596 76.9141 70.1107 78.209 67.9343 78.209C65.8956 78.1814 63.4436 76.2254 62.81 74.0765C62.3416 72.5061 62.8651 70.3297 64.0222 68.9797L64.9038 67.9604L64.8211 63.3871L64.7109 58.7862L63.5814 57.9597C61.2121 56.2516 60.8539 53.6068 62.7549 51.8436C65.1517 49.5845 68.7332 50.1906 70.2209 53.1384C70.7995 54.2955 70.827 54.6537 70.827 60.8524V67.3543L71.8188 68.3185C73.7749 70.1644 74.381 72.8918 73.3065 74.9305Z" fill="#1A1B22"/>
<path d="M73.3354 9.47171C73.06 10.0778 72.3712 11.0145 71.8202 11.5104L70.8284 12.4747V18.8938C70.8284 25.616 70.6907 26.5803 69.506 27.8751C68.2938 29.2251 65.6765 29.6659 64.0235 28.8118C61.0206 27.2415 60.7451 24.0181 63.4725 22.007L64.7674 21.0427V11.8686L63.8031 10.4635C62.2052 8.06666 62.1777 6.22081 63.748 3.93415C66.2275 0.269997 71.2141 0.545498 73.1702 4.4576C73.9967 6.13816 74.0518 7.90136 73.3354 9.47171Z" fill="#1A1B22"/>
<path d="M56.9443 76.4458C56.5586 77.2723 55.8423 78.209 55.2362 78.6498C54.327 79.3386 53.9689 79.4488 52.3434 79.4488C50.718 79.4488 50.3323 79.3386 49.3129 78.6223C46.5855 76.7213 46.1722 73.6357 48.1283 70.2746L48.8997 68.9797L48.817 63.1942C48.7895 60.026 48.7068 57.3536 48.6517 57.3261C48.5966 57.271 38.4857 57.1883 26.1709 57.1608L3.80024 57.0781L3.27679 56.472C2.78089 55.8384 1.67889 52.5324 1.67889 51.6508C1.67889 51.2375 3.74514 51.21 27.5759 51.21C53.1148 51.21 53.473 51.21 54.024 51.761C54.5474 52.2844 54.575 52.6701 54.575 60.2188V68.1532L55.8147 69.9164C57.7432 72.699 58.0187 74.1591 56.9443 76.4458Z" fill="#1A1B22"/>
<path d="M57.1803 7.76378C56.9599 8.31478 56.2987 9.47188 55.6651 10.2984L54.5355 11.7861V19.6103C54.5355 26.9111 54.508 27.4896 54.0121 28.0957L53.4886 28.7569H1.77721L1.80476 27.71C1.85986 26.3876 3.20982 23.1918 3.87102 22.8337C4.17407 22.6684 12.7697 22.5582 26.5447 22.5582H48.75V11.0147L47.896 9.63718C45.9399 6.46893 46.794 2.91497 49.9071 1.31707C51.1469 0.68342 53.406 0.62832 54.508 1.17932C56.161 2.03337 57.5936 4.37513 57.566 6.16588C57.5385 6.46893 57.3732 7.18523 57.1803 7.76378Z" fill="#1A1B22"/>
<path d="M41.4904 73.1951C40.9394 75.2063 40.3884 76.143 39.066 77.4929C37.2752 79.2561 35.5671 79.9724 33.0876 80C31.2969 80 30.7734 79.8898 29.1755 79.0908C26.8062 77.9337 25.2358 76.1981 24.6022 74.0216L24.1338 72.4237H13.6373L11.7088 70.4126C8.54052 67.1341 8.43032 66.9964 8.84357 66.5005C9.14662 66.1423 10.3588 66.0872 17.2188 66.0872H25.2634L26.6409 64.7648C28.7623 62.6986 30.2775 62.0925 33.0876 62.0925C35.0712 62.0925 35.6498 62.2027 36.8344 62.8363C40.4986 64.7648 42.5648 69.3381 41.4904 73.1951ZM35.4294 69.7789C34.6029 67.7953 31.7377 67.63 30.5806 69.4759C28.9827 72.038 32.206 75.0685 34.5753 73.2227C35.8426 72.2309 36.063 71.2942 35.4294 69.7789Z" fill="#1A1B22"/>
<path d="M41.6232 10.9597C41.0998 13.4943 38.9784 16.1391 36.4989 17.3238C35.452 17.8197 34.6806 17.985 33.0827 17.985C30.5205 17.985 28.4267 17.1309 26.636 15.2851L25.4238 14.0178H22.6963C21.2086 14.0178 17.4894 13.9351 14.4313 13.8249C9.30702 13.6596 8.83867 13.6045 8.83867 13.1637C8.83867 12.8882 9.88557 11.5658 11.1529 10.2434L13.4671 7.819L24.0738 7.5435L24.5422 6.1109C25.8646 2.03349 29.2257 -0.253161 33.4684 0.0223391C35.7826 0.187639 37.656 1.04169 39.1988 2.63959C41.1549 4.6783 42.1742 8.17715 41.6232 10.9597ZM35.3143 7.51595C34.5704 6.30375 33.1929 5.86295 31.8981 6.41395C29.0053 7.5986 29.8043 11.7862 32.8899 11.8138C34.2123 11.8138 34.8735 11.4556 35.3969 10.4914C35.9755 9.472 35.9204 8.5353 35.3143 7.51595Z" fill="#1A1B22"/>
<path d="M107.269 15.6017H115.549V66.0018H107.269V15.6017Z" fill="#1A1B22"/>
<path d="M132.109 21.7937H140.605V66.0018H132.109V21.7937ZM118.789 15.6017H153.925V23.4497H118.789V15.6017Z" fill="#1A1B22"/>
<path d="M174.68 42.4577H177.776C181.184 42.4577 183.824 41.6418 185.696 40.0098C187.568 38.3297 188.504 35.9537 188.504 32.8817C188.504 29.9057 187.568 27.6017 185.696 25.9697C183.824 24.2897 181.208 23.4497 177.848 23.4497H174.68L166.976 15.6017H177.992C181.592 15.6017 184.808 16.3217 187.64 17.7617C190.52 19.2017 192.752 21.2417 194.336 23.8817C195.92 26.5217 196.712 29.5457 196.712 32.9537C196.712 36.4097 195.896 39.4577 194.264 42.0977C192.68 44.6898 190.448 46.7058 187.568 48.1458C184.736 49.5858 181.496 50.3058 177.848 50.3058H174.68V42.4577ZM166.976 15.6017H175.256V66.0018H166.976V15.6017Z" fill="#1A1B22"/>
<path d="M232.432 26.6897H240.425V66.0018H232.432V26.6897ZM219.256 66.9378C215.464 66.9378 212.032 66.0258 208.96 64.2018C205.936 62.3778 203.56 59.9058 201.832 56.7858C200.104 53.6178 199.24 50.1378 199.24 46.3458C199.24 42.5537 200.104 39.0977 201.832 35.9777C203.56 32.8097 205.936 30.3137 208.96 28.4897C212.032 26.6657 215.464 25.7537 219.256 25.7537C223 25.7537 226.336 26.6657 229.264 28.4897C232.193 30.3137 234.449 32.7857 236.033 35.9057C237.665 39.0257 238.481 42.5057 238.481 46.3458C238.481 50.1858 237.665 53.6658 236.033 56.7858C234.449 59.9058 232.193 62.3778 229.264 64.2018C226.336 66.0258 223 66.9378 219.256 66.9378ZM219.904 59.3778C222.256 59.3778 224.368 58.8258 226.24 57.7218C228.16 56.5698 229.673 55.0098 230.777 53.0418C231.881 51.0738 232.432 48.8418 232.432 46.3458C232.432 43.8498 231.881 41.6178 230.777 39.6497C229.673 37.6817 228.16 36.1457 226.24 35.0417C224.368 33.8897 222.256 33.3137 219.904 33.3137C217.552 33.3137 215.392 33.8897 213.424 35.0417C211.504 36.1457 209.992 37.6817 208.888 39.6497C207.784 41.6178 207.232 43.8498 207.232 46.3458C207.232 48.8418 207.784 51.0738 208.888 53.0418C209.992 55.0098 211.504 56.5698 213.424 57.7218C215.392 58.8258 217.552 59.3778 219.904 59.3778Z" fill="#1A1B22"/>
<path d="M249.066 26.6897H256.914V38.7857L253.458 41.4497C253.65 38.4257 254.418 35.7137 255.762 33.3137C257.106 30.9137 258.858 29.0417 261.018 27.6977C263.178 26.3537 265.554 25.6817 268.146 25.6817C269.01 25.6817 270.066 25.8257 271.314 26.1137V33.4577C270.21 33.4577 269.106 33.4577 268.002 33.4577C265.89 33.4577 263.994 33.8897 262.314 34.7537C260.682 35.5697 259.386 36.8657 258.426 38.6417C257.466 40.4177 256.986 42.6497 256.986 45.3378V66.0018H249.066V26.6897Z" fill="#1A1B22"/>
<path d="M289.01 66.7218C286.082 66.7218 283.61 66.1698 281.594 65.0658C279.626 63.9138 278.162 62.3058 277.202 60.2418C276.242 58.1298 275.762 55.6818 275.762 52.8978V16.8257H283.682V26.6897H295.347V34.3937H283.682V52.1778C283.682 54.5298 284.21 56.2338 285.266 57.2898C286.322 58.2978 287.811 58.8018 289.73 58.8018H295.347V66.7218H289.01Z" fill="#1A1B22"/>
<path d="M315.609 62.4018L315.393 69.3858L298.257 26.6897H306.609L319.713 60.3138H316.977L329.937 26.6897H338.361L317.409 78.3138H308.769L315.609 62.4018Z" fill="#1A1B22"/>
</svg>
