<svg width="20" height="20" viewBox="0 0 20 20" fill="none" xmlns="http://www.w3.org/2000/svg">
<path d="M0 4C0 2.9 1 2 2.22222 2H17.7778C18.3671 2 18.9324 2.21071 19.3491 2.58579C19.7659 2.96086 20 3.46957 20 4V18C20 18.5304 19.7659 19.0391 19.3491 19.4142C18.9324 19.7893 18.3671 20 17.7778 20H2.22222C1.63285 20 1.06762 19.7893 0.650874 19.4142C0.234126 19.0391 0 18.5304 0 18V4ZM1.66671 5.83333V18.3333H18.3334V5.83333H1.66671ZM4.44444 0H6.66667V2H4.44444V0ZM13.3333 0H15.5556V2H13.3333V0ZM4.44444 9H6.66667V11H4.44444V9ZM4.44444 13H6.66667V15H4.44444V13ZM8.88889 9H11.1111V11H8.88889V9ZM8.88889 13H11.1111V15H8.88889V13ZM13.3333 9H15.5556V11H13.3333V9ZM13.3333 13H15.5556V15H13.3333V13Z" fill="#065CF3"/>
</svg>
