<svg width="24" height="24" viewBox="0 0 24 24" fill="none" xmlns="http://www.w3.org/2000/svg">
<path d="M9.33306 15.919L5.41406 12C5.22653 11.8125 4.97223 11.7072 4.70706 11.7072C4.4419 11.7072 4.18759 11.8125 4.00006 12C3.81259 12.1875 3.70728 12.4418 3.70728 12.707C3.70728 12.9722 3.81259 13.2265 4.00006 13.414L7.91906 17.333C8.10479 17.5188 8.3253 17.6662 8.56801 17.7667C8.81071 17.8673 9.07085 17.9191 9.33356 17.9191C9.59627 17.9191 9.85641 17.8673 10.0991 17.7667C10.3418 17.6662 10.5623 17.5188 10.7481 17.333L20.0001 8.08099C20.1875 7.89347 20.2928 7.63916 20.2928 7.37399C20.2928 7.10883 20.1875 6.85452 20.0001 6.66699C19.8125 6.47952 19.5582 6.37421 19.2931 6.37421C19.0279 6.37421 18.7736 6.47952 18.5861 6.66699L9.33306 15.919Z" fill="#242F7B"/>
</svg>
