<svg width="12" height="12" viewBox="0 0 12 12" fill="none" xmlns="http://www.w3.org/2000/svg">
<path d="M10.7674 1.23264C10.6184 1.08368 10.4163 1 10.2056 1C9.99492 1 9.79286 1.08368 9.64386 1.23264L6 4.87649L2.35615 1.23264C2.20714 1.08368 2.00508 1 1.79439 1C1.5837 1 1.38164 1.08368 1.23264 1.23264C1.08368 1.38164 1 1.5837 1 1.79439C1 2.00508 1.08368 2.20714 1.23264 2.35615L4.87649 6L1.23264 9.64386C1.08368 9.79286 1 9.99492 1 10.2056C1 10.4163 1.08368 10.6184 1.23264 10.7674C1.38164 10.9163 1.5837 11 1.79439 11C2.00508 11 2.20714 10.9163 2.35615 10.7674L6 7.12351L9.64386 10.7674C9.79286 10.9163 9.99492 11 10.2056 11C10.4163 11 10.6184 10.9163 10.7674 10.7674C10.9163 10.6184 11 10.4163 11 10.2056C11 9.99492 10.9163 9.79286 10.7674 9.64386L7.12351 6L10.7674 2.35615C10.9163 2.20714 11 2.00508 11 1.79439C11 1.5837 10.9163 1.38164 10.7674 1.23264Z" fill="#242F7B"/>
</svg>
