<svg width="24" height="24" viewBox="0 0 24 24" fill="none" xmlns="http://www.w3.org/2000/svg">
<path d="M18.0001 6C17.8125 5.81253 17.5582 5.70721 17.2931 5.70721C17.0279 5.70721 16.7736 5.81253 16.5861 6L12.0001 10.586L7.41406 6C7.22653 5.81253 6.97223 5.70721 6.70706 5.70721C6.4419 5.70721 6.18759 5.81253 6.00006 6C5.81259 6.18753 5.70728 6.44184 5.70728 6.707C5.70728 6.97216 5.81259 7.22647 6.00006 7.414L10.5861 12L6.00006 16.586C5.81259 16.7735 5.70728 17.0278 5.70728 17.293C5.70728 17.5582 5.81259 17.8125 6.00006 18C6.18759 18.1875 6.4419 18.2928 6.70706 18.2928C6.97223 18.2928 7.22653 18.1875 7.41406 18L12.0001 13.414L16.5861 18C16.7736 18.1875 17.0279 18.2928 17.2931 18.2928C17.5582 18.2928 17.8125 18.1875 18.0001 18C18.1875 17.8125 18.2928 17.5582 18.2928 17.293C18.2928 17.0278 18.1875 16.7735 18.0001 16.586L13.4141 12L18.0001 7.414C18.1875 7.22647 18.2928 6.97216 18.2928 6.707C18.2928 6.44184 18.1875 6.18753 18.0001 6Z" fill="#242F7B"/>
</svg>
