<svg width="10" height="10" viewBox="0 0 10 10" fill="none" xmlns="http://www.w3.org/2000/svg">
<path d="M9.76736 0.232637C9.61836 0.0836796 9.4163 0 9.20561 0C8.99492 0 8.79286 0.0836796 8.64386 0.232637L5 3.87649L1.35615 0.232637C1.20714 0.0836796 1.00508 0 0.794391 0C0.583702 0 0.381639 0.0836796 0.232637 0.232637C0.0836796 0.381639 0 0.583702 0 0.794391C0 1.00508 0.0836796 1.20714 0.232637 1.35615L3.87649 5L0.232637 8.64386C0.0836796 8.79286 0 8.99492 0 9.20561C0 9.4163 0.0836796 9.61836 0.232637 9.76736C0.381639 9.91632 0.583702 10 0.794391 10C1.00508 10 1.20714 9.91632 1.35615 9.76736L5 6.12351L8.64386 9.76736C8.79286 9.91632 8.99492 10 9.20561 10C9.4163 10 9.61836 9.91632 9.76736 9.76736C9.91632 9.61836 10 9.4163 10 9.20561C10 8.99492 9.91632 8.79286 9.76736 8.64386L6.12351 5L9.76736 1.35615C9.91632 1.20714 10 1.00508 10 0.794391C10 0.583702 9.91632 0.381639 9.76736 0.232637Z" fill="white"/>
</svg>
