<svg width="61" height="86" viewBox="0 0 61 86" fill="none" xmlns="http://www.w3.org/2000/svg">
<rect x="0.5" y="0.5" width="59.6667" height="84.2328" rx="4.5" stroke="#9747FF" stroke-dasharray="10 5"/>
<rect x="20" y="20" width="20" height="20" rx="4" fill="white" fill-opacity="0.5"/>
<path d="M30.08 35.2112L30 35.2929L29.912 35.2112C26.112 31.688 23.6 29.3583 23.6 26.9959C23.6 25.361 24.8 24.1349 26.4 24.1349C27.632 24.1349 28.832 24.9523 29.256 26.064H30.744C31.168 24.9523 32.368 24.1349 33.6 24.1349C35.2 24.1349 36.4 25.361 36.4 26.9959C36.4 29.3583 33.888 31.688 30.08 35.2112ZM33.6 22.5C32.208 22.5 30.872 23.1621 30 24.2003C29.128 23.1621 27.792 22.5 26.4 22.5C23.936 22.5 22 24.47 22 26.9959C22 30.0777 24.72 32.6035 28.84 36.421L30 37.5L31.16 36.421C35.28 32.6035 38 30.0777 38 26.9959C38 24.47 36.064 22.5 33.6 22.5Z" fill="#065CF3"/>
<rect x="20" y="45.9411" width="20" height="20" rx="4" fill="white" fill-opacity="0.6"/>
<path d="M29.9963 60.5485C28.2045 58.8866 26.744 57.5188 25.7145 56.2885C24.6323 54.9953 24.1 53.9375 24.1 52.937C24.1 51.5681 25.0863 50.576 26.4 50.576C27.4311 50.576 28.441 51.2714 28.7888 52.1833L28.9116 52.5051H29.256H30.744H31.0884L31.2112 52.1833C31.559 51.2714 32.5689 50.576 33.6 50.576C34.9137 50.576 35.9 51.5681 35.9 52.937C35.9 53.9374 35.3677 54.9952 34.2847 56.2883C33.2542 57.5186 31.7917 58.8866 29.9963 60.5485ZM29.6597 61.6003L30.0166 61.9319L30.3573 61.5837L30.4287 61.5109C32.3201 59.7609 33.9241 58.2762 35.0513 56.9304C36.1763 55.5873 36.9 54.299 36.9 52.937C36.9 51.0362 35.4863 49.576 33.6 49.576C32.2873 49.576 31.0105 50.3645 30.421 51.5051H29.579C28.9895 50.3645 27.7127 49.576 26.4 49.576C24.5137 49.576 23.1 51.0362 23.1 52.937C23.1 54.299 23.8237 55.5872 24.9475 56.9302C26.0715 58.2734 27.6696 59.7551 29.5523 61.5006L29.5717 61.5186L29.5721 61.5189L29.6597 61.6003ZM29.6171 50.463L30 50.9188L30.3829 50.463C31.1648 49.532 32.3632 48.9411 33.6 48.9411C35.7783 48.9411 37.5 50.6777 37.5 52.937C37.5 54.317 36.8953 55.6103 35.7346 57.0613C34.568 58.5197 32.8898 60.0776 30.8202 61.9953L30.8195 61.996L30 62.7582L29.1805 61.996L29.1798 61.9953C27.1102 60.0776 25.432 58.5197 24.2654 57.0613C23.1047 55.6103 22.5 54.317 22.5 52.937C22.5 50.6777 24.2217 48.9411 26.4 48.9411C27.6368 48.9411 28.8352 49.532 29.6171 50.463Z" fill="#065CF3" stroke="#065CF3"/>
</svg>
