<svg width="170" height="40" viewBox="0 0 170 40" fill="none" xmlns="http://www.w3.org/2000/svg">
<path d="M47.1381 21.3346C46.7661 22.533 45.6917 23.8279 44.6172 24.3375C42.1928 25.5222 39.0935 24.5166 37.9915 22.1886L37.6884 21.5412L0 21.4723L0.08265 18.373L37.6884 18.3041L38.0879 17.5465C38.57 16.6235 39.3276 15.9072 40.3608 15.4251C41.022 15.1221 41.3112 15.067 42.4408 15.067C43.5979 15.067 43.8458 15.1083 44.5346 15.4527C45.5402 15.9486 46.6008 17.0919 46.9728 18.0975C47.2758 18.8964 47.3585 20.6045 47.1381 21.3346ZM44.1076 18.8689C43.6668 18.2352 43.1709 17.9735 42.4683 17.9735C41.3112 17.9735 40.5123 18.8 40.5123 19.9571C40.5123 21.7478 42.7852 22.5743 43.9974 21.2244C44.5346 20.6321 44.5897 19.5301 44.1076 18.8689Z" fill="#1A1B22"/>
<path d="M36.6532 37.4652C36.1298 38.457 35.0553 39.1044 33.9671 39.1044C32.9477 39.0907 31.7218 38.1126 31.4049 37.0382C31.1708 36.253 31.4325 35.1648 32.011 34.4898L32.4518 33.9801L32.4105 31.6935L32.3554 29.3931L31.7906 28.9798C30.606 28.1258 30.4269 26.8034 31.3774 25.9218C32.5758 24.7922 34.3666 25.0953 35.1104 26.5692C35.3997 27.1477 35.4135 27.3268 35.4135 30.4262V33.6771L35.9094 34.1592C36.8874 35.0821 37.1904 36.4459 36.6532 37.4652Z" fill="#1A1B22"/>
<path d="M36.6677 4.73585C36.5299 5.0389 36.1856 5.50725 35.9101 5.7552L35.4142 6.23732V9.4469C35.4142 12.808 35.3453 13.2901 34.753 13.9376C34.1469 14.6125 32.8382 14.8329 32.0117 14.4059C30.5103 13.6207 30.3725 12.0091 31.7362 11.0035L32.3837 10.5214V5.93427L31.9015 5.23175C31.1026 4.03332 31.0888 3.1104 31.874 1.96707C33.1137 0.134998 35.607 0.272748 36.585 2.2288C36.9983 3.06907 37.0258 3.95067 36.6677 4.73585Z" fill="#1A1B22"/>
<path d="M28.4721 38.2229C28.2792 38.6361 27.9211 39.1045 27.618 39.3249C27.1635 39.6692 26.9844 39.7243 26.1717 39.7243C25.3589 39.7243 25.1661 39.6692 24.6564 39.3111C23.2927 38.3606 23.0861 36.8178 24.0641 35.1373L24.4498 34.4898L24.4085 31.5971C24.3947 30.013 24.3534 28.6768 24.3258 28.663C24.2983 28.6355 19.2428 28.5941 13.0854 28.5804L1.90012 28.539L1.63839 28.236C1.39044 27.9192 0.839442 26.2662 0.839442 25.8254C0.839442 25.6187 1.87257 25.6049 13.7879 25.6049C26.5574 25.6049 26.7365 25.605 27.0119 25.8805C27.2737 26.1422 27.2874 26.335 27.2874 30.1094V34.0766L27.9073 34.9582C28.8716 36.3495 29.0093 37.0795 28.4721 38.2229Z" fill="#1A1B22"/>
<path d="M28.5901 3.88189C28.4799 4.15739 28.1493 4.73594 27.8325 5.14919L27.2677 5.89304V9.80514C27.2677 13.4555 27.254 13.7448 27.006 14.0478L26.7443 14.3784H0.888605L0.90238 13.855C0.92993 13.1938 1.60491 11.5959 1.93551 11.4168C2.08703 11.3342 6.38483 11.2791 13.2723 11.2791H24.375V5.50734L23.948 4.81859C22.9699 3.23446 23.397 1.45749 24.9535 0.658535C25.5734 0.34171 26.703 0.31416 27.254 0.58966C28.0805 1.01668 28.7968 2.18756 28.783 3.08294C28.7692 3.23446 28.6866 3.59261 28.5901 3.88189Z" fill="#1A1B22"/>
<path d="M20.7452 36.5975C20.4697 37.6031 20.1942 38.0714 19.533 38.7464C18.6376 39.628 17.7835 39.9862 16.5438 40C15.6484 40 15.3867 39.9449 14.5877 39.5454C13.4031 38.9668 12.6179 38.099 12.3011 37.0108L12.0669 36.2118H6.81863L5.85438 35.2062C4.27026 33.567 4.21516 33.4981 4.42178 33.2502C4.57331 33.0711 5.17941 33.0436 8.60938 33.0436H12.6317L13.3204 32.3824C14.3811 31.3492 15.1387 31.0462 16.5438 31.0462C17.5356 31.0462 17.8249 31.1013 18.4172 31.4181C20.2493 32.3824 21.2824 34.669 20.7452 36.5975ZM17.7147 34.8894C17.3014 33.8976 15.8688 33.815 15.2903 34.7379C14.4913 36.019 16.103 37.5342 17.2876 36.6113C17.9213 36.1154 18.0315 35.6471 17.7147 34.8894Z" fill="#1A1B22"/>
<path d="M20.8116 5.47985C20.5499 6.74715 19.4892 8.06955 18.2494 8.66187C17.726 8.90982 17.3403 8.99247 16.5413 8.99247C15.2603 8.99247 14.2134 8.56545 13.318 7.64252L12.7119 7.00887H11.3482C10.6043 7.00887 8.74468 6.96755 7.21565 6.91245C4.6535 6.8298 4.41933 6.80225 4.41933 6.58185C4.41933 6.4441 4.94278 5.7829 5.57643 5.1217L6.73353 3.9095L12.0369 3.77175L12.2711 3.05545C12.9323 1.01674 14.6128 -0.12658 16.7342 0.0111696C17.8913 0.0938196 18.828 0.520845 19.5994 1.31979C20.5774 2.33915 21.0871 4.08857 20.8116 5.47985ZM17.6571 3.75797C17.2852 3.15187 16.5964 2.93147 15.949 3.20697C14.5026 3.7993 14.9021 5.8931 16.4449 5.90687C17.1061 5.90687 17.4367 5.7278 17.6984 5.24567C17.9877 4.736 17.9602 4.26765 17.6571 3.75797Z" fill="#1A1B22"/>
<path d="M53.6346 7.80085H57.7746V33.0009H53.6346V7.80085Z" fill="#1A1B22"/>
<path d="M66.0546 10.8968H70.3026V33.0009H66.0546V10.8968ZM59.3946 7.80085H76.9626V11.7248H59.3946V7.80085Z" fill="#1A1B22"/>
<path d="M87.3399 21.2288H88.8879C90.5919 21.2288 91.9119 20.8209 92.8479 20.0049C93.7839 19.1649 94.2519 17.9769 94.2519 16.4409C94.2519 14.9529 93.7839 13.8008 92.8479 12.9848C91.9119 12.1448 90.6039 11.7248 88.9239 11.7248H87.3399L83.4879 7.80085H88.9959C90.7959 7.80085 92.4039 8.16085 93.8199 8.88085C95.2599 9.60085 96.3759 10.6208 97.1679 11.9408C97.9599 13.2608 98.3559 14.7729 98.3559 16.4769C98.3559 18.2049 97.9479 19.7288 97.1319 21.0488C96.3399 22.3448 95.2239 23.3528 93.7839 24.0728C92.3679 24.7928 90.7479 25.1529 88.9239 25.1529H87.3399V21.2288ZM83.4879 7.80085H87.6279V33.0009H83.4879V7.80085Z" fill="#1A1B22"/>
<path d="M116.216 13.3449H120.212V33.0009H116.216V13.3449ZM109.628 33.4688C107.732 33.4688 106.016 33.0128 104.48 32.1008C102.968 31.1888 101.78 29.9529 100.916 28.3929C100.052 26.8089 99.6201 25.0688 99.6201 23.1728C99.6201 21.2768 100.052 19.5488 100.916 17.9888C101.78 16.4049 102.968 15.1568 104.48 14.2448C106.016 13.3328 107.732 12.8769 109.628 12.8769C111.5 12.8769 113.168 13.3328 114.632 14.2448C116.096 15.1568 117.224 16.3929 118.016 17.9529C118.832 19.5128 119.24 21.2528 119.24 23.1728C119.24 25.0928 118.832 26.8329 118.016 28.3929C117.224 29.9529 116.096 31.1888 114.632 32.1008C113.168 33.0128 111.5 33.4688 109.628 33.4688ZM109.952 29.6889C111.128 29.6889 112.184 29.4129 113.12 28.8609C114.08 28.2849 114.836 27.5049 115.388 26.5209C115.94 25.5368 116.216 24.4208 116.216 23.1728C116.216 21.9248 115.94 20.8088 115.388 19.8249C114.836 18.8409 114.08 18.0729 113.12 17.5209C112.184 16.9449 111.128 16.6568 109.952 16.6568C108.776 16.6568 107.696 16.9449 106.712 17.5209C105.752 18.0729 104.996 18.8409 104.444 19.8249C103.892 20.8088 103.616 21.9248 103.616 23.1728C103.616 24.4208 103.892 25.5368 104.444 26.5209C104.996 27.5049 105.752 28.2849 106.712 28.8609C107.696 29.4129 108.776 29.6889 109.952 29.6889Z" fill="#1A1B22"/>
<path d="M124.533 13.3449H128.457V19.3928L126.729 20.7248C126.825 19.2129 127.209 17.8568 127.881 16.6568C128.553 15.4568 129.429 14.5209 130.509 13.8489C131.589 13.1769 132.777 12.8409 134.073 12.8409C134.505 12.8409 135.033 12.9128 135.657 13.0568V16.7288C135.105 16.7288 134.553 16.7288 134.001 16.7288C132.945 16.7288 131.997 16.9449 131.157 17.3769C130.341 17.7848 129.693 18.4328 129.213 19.3209C128.733 20.2089 128.493 21.3249 128.493 22.6688V33.0009H124.533V13.3449Z" fill="#1A1B22"/>
<path d="M144.505 33.3609C143.041 33.3609 141.805 33.0849 140.797 32.5329C139.813 31.9569 139.081 31.1528 138.601 30.1208C138.121 29.0648 137.881 27.8409 137.881 26.4489V8.41285H141.841V13.3449H147.673V17.1968H141.841V26.0889C141.841 27.2649 142.105 28.1168 142.633 28.6448C143.161 29.1488 143.905 29.4009 144.865 29.4009H147.673V33.3609H144.505Z" fill="#1A1B22"/>
<path d="M157.804 31.2009L157.696 34.6929L149.128 13.3449H153.304L159.856 30.1569H158.488L164.968 13.3449H169.18L158.704 39.1568H154.384L157.804 31.2009Z" fill="#1A1B22"/>
</svg>
