<svg width="18" height="12" viewBox="0 0 18 12" fill="none" xmlns="http://www.w3.org/2000/svg">
<path d="M6.33306 9.91979L2.41406 6.00079C2.22653 5.81332 1.97223 5.708 1.70706 5.708C1.4419 5.708 1.18759 5.81332 1.00006 6.00079C0.812591 6.18831 0.707275 6.44262 0.707275 6.70779C0.707275 6.97295 0.812591 7.22726 1.00006 7.41479L4.91906 11.3338C5.10479 11.5196 5.3253 11.667 5.56801 11.7675C5.81071 11.8681 6.07085 11.9199 6.33356 11.9199C6.59627 11.9199 6.85641 11.8681 7.09912 11.7675C7.34182 11.667 7.56233 11.5196 7.74806 11.3338L17.0001 2.08179C17.1875 1.89426 17.2928 1.63995 17.2928 1.37479C17.2928 1.10962 17.1875 0.855314 17.0001 0.667786C16.8125 0.480315 16.5582 0.375 16.2931 0.375C16.0279 0.375 15.7736 0.480315 15.5861 0.667786L6.33306 9.91979Z" fill="#01C843"/>
</svg>
