<svg width="20" height="20" viewBox="0 0 20 20" fill="none" xmlns="http://www.w3.org/2000/svg">
<rect width="20" height="20" rx="4" fill="white" fill-opacity="0.6"/>
<path d="M10.08 15.2112L10 15.2929L9.912 15.2112C6.112 11.688 3.6 9.35831 3.6 6.99591C3.6 5.36104 4.8 4.13488 6.4 4.13488C7.632 4.13488 8.832 4.95232 9.256 6.06403H10.744C11.168 4.95232 12.368 4.13488 13.6 4.13488C15.2 4.13488 16.4 5.36104 16.4 6.99591C16.4 9.35831 13.888 11.688 10.08 15.2112ZM13.6 2.5C12.208 2.5 10.872 3.16213 10 4.20027C9.128 3.16213 7.792 2.5 6.4 2.5C3.936 2.5 2 4.47003 2 6.99591C2 10.0777 4.72 12.6035 8.84 16.421L10 17.5L11.16 16.421C15.28 12.6035 18 10.0777 18 6.99591C18 4.47003 16.064 2.5 13.6 2.5Z" fill="#065CF3"/>
</svg>
