<svg width="123" height="64" viewBox="0 0 123 64" fill="none" xmlns="http://www.w3.org/2000/svg">
<rect x="0.5" y="0.5" width="122" height="63" rx="4.5" stroke="#9747FF" stroke-dasharray="10 5"/>
<path d="M32 22C30.0222 22 28.0888 22.5865 26.4443 23.6853C24.7998 24.7841 23.5181 26.3459 22.7612 28.1732C22.0043 30.0004 21.8063 32.0111 22.1922 33.9509C22.578 35.8907 23.5304 37.6725 24.9289 39.0711C26.3275 40.4696 28.1093 41.422 30.0491 41.8078C31.9889 42.1937 33.9996 41.9957 35.8268 41.2388C37.6541 40.4819 39.2159 39.2002 40.3147 37.5557C41.4135 35.9112 42 33.9778 42 32C41.9971 29.3487 40.9426 26.8068 39.0679 24.9321C37.1932 23.0574 34.6513 22.0029 32 22V22ZM32 40.3333C30.3518 40.3333 28.7407 39.8446 27.3703 38.9289C25.9998 38.0132 24.9317 36.7117 24.301 35.189C23.6703 33.6663 23.5053 31.9908 23.8268 30.3742C24.1483 28.7577 24.942 27.2729 26.1074 26.1074C27.2729 24.942 28.7577 24.1483 30.3743 23.8268C31.9908 23.5052 33.6663 23.6703 35.189 24.301C36.7117 24.9317 38.0132 25.9998 38.9289 27.3702C39.8446 28.7407 40.3333 30.3518 40.3333 32C40.3309 34.2094 39.4522 36.3276 37.8899 37.8899C36.3276 39.4522 34.2094 40.3309 32 40.3333Z" fill="#242F7B"/>
<path d="M31.9997 30.3333H31.1663C30.9453 30.3333 30.7334 30.421 30.5771 30.5773C30.4208 30.7336 30.333 30.9456 30.333 31.1666C30.333 31.3876 30.4208 31.5996 30.5771 31.7558C30.7334 31.9121 30.9453 31.9999 31.1663 31.9999H31.9997V36.9999C31.9997 37.2209 32.0875 37.4329 32.2438 37.5892C32.4 37.7455 32.612 37.8333 32.833 37.8333C33.054 37.8333 33.266 37.7455 33.4223 37.5892C33.5785 37.4329 33.6663 37.2209 33.6663 36.9999V31.9999C33.6663 31.5579 33.4907 31.134 33.1782 30.8214C32.8656 30.5088 32.4417 30.3333 31.9997 30.3333Z" fill="#242F7B"/>
<path d="M32 28.6667C32.6904 28.6667 33.25 28.1071 33.25 27.4167C33.25 26.7264 32.6904 26.1667 32 26.1667C31.3096 26.1667 30.75 26.7264 30.75 27.4167C30.75 28.1071 31.3096 28.6667 32 28.6667Z" fill="#242F7B"/>
<path d="M81 24C79.4178 24 77.871 24.4692 76.5554 25.3482C75.2398 26.2273 74.2145 27.4767 73.609 28.9385C73.0035 30.4003 72.845 32.0089 73.1537 33.5607C73.4624 35.1126 74.2243 36.538 75.3431 37.6569C76.462 38.7757 77.8874 39.5376 79.4393 39.8463C80.9911 40.155 82.5997 39.9965 84.0615 39.391C85.5233 38.7855 86.7727 37.7602 87.6518 36.4446C88.5308 35.129 89 33.5822 89 32C88.9977 29.879 88.1541 27.8455 86.6543 26.3457C85.1545 24.8459 83.121 24.0023 81 24V24ZM81 38.6667C79.6815 38.6667 78.3925 38.2757 77.2962 37.5431C76.1999 36.8106 75.3454 35.7694 74.8408 34.5512C74.3362 33.333 74.2042 31.9926 74.4614 30.6994C74.7187 29.4062 75.3536 28.2183 76.286 27.286C77.2183 26.3536 78.4062 25.7187 79.6994 25.4614C80.9926 25.2042 82.3331 25.3362 83.5512 25.8408C84.7694 26.3454 85.8106 27.1999 86.5431 28.2962C87.2757 29.3925 87.6667 30.6815 87.6667 32C87.6647 33.7675 86.9617 35.4621 85.7119 36.7119C84.4621 37.9617 82.7675 38.6647 81 38.6667Z" fill="#1A1B22"/>
<path d="M80.9998 30.6666H80.3332C80.1564 30.6666 79.9868 30.7369 79.8618 30.8619C79.7367 30.9869 79.6665 31.1565 79.6665 31.3333C79.6665 31.5101 79.7367 31.6797 79.8618 31.8047C79.9868 31.9297 80.1564 32 80.3332 32H80.9998V36C80.9998 36.1768 81.0701 36.3463 81.1951 36.4714C81.3201 36.5964 81.4897 36.6666 81.6665 36.6666C81.8433 36.6666 82.0129 36.5964 82.1379 36.4714C82.2629 36.3463 82.3332 36.1768 82.3332 36V32C82.3332 31.6463 82.1927 31.3072 81.9426 31.0572C81.6926 30.8071 81.3535 30.6666 80.9998 30.6666Z" fill="#1A1B22"/>
<path d="M81 29.3334C81.5523 29.3334 82 28.8857 82 28.3334C82 27.7811 81.5523 27.3334 81 27.3334C80.4477 27.3334 80 27.7811 80 28.3334C80 28.8857 80.4477 29.3334 81 29.3334Z" fill="#1A1B22"/>
</svg>
