<svg width="20" height="20" viewBox="0 0 20 20" fill="none" xmlns="http://www.w3.org/2000/svg">
<path d="M3.87818 7.69888C3.97469 11.6194 6.25878 16.2081 9.96879 18.701C10.2422 18.8847 10.5976 18.8847 10.871 18.701C14.5809 16.208 16.8649 11.6193 16.9614 7.69872C17.0093 5.75136 16.5169 4.05409 15.4921 2.85699C14.4845 1.67984 12.8672 0.874991 10.4198 0.875L3.87818 7.69888ZM3.87818 7.69888C3.83024 5.75155 4.32269 4.05428 5.34745 2.85716M3.87818 7.69888L5.34745 2.85716M5.34745 2.85716C6.35513 1.67998 7.97239 0.875082 10.4198 0.875L5.34745 2.85716Z" fill="white" stroke="#065CF3" stroke-width="1.75" stroke-linejoin="round"/>
<circle cx="10.4197" cy="7.39129" r="3.47826" stroke="#065CF3" stroke-width="1.75"/>
</svg>
