<svg width="32" height="32" viewBox="0 0 32 32" fill="none" xmlns="http://www.w3.org/2000/svg">
<path d="M21.7156 7.59668H3.66675V27.0705H8.69025V20.735H18.3162L22.7082 27.0705H28.3333L23.4903 20.7058C24.9944 20.4723 26.0772 19.9175 26.7391 19.0417C27.4007 18.1658 27.7317 16.7643 27.7317 14.8958V13.436C27.7317 12.3265 27.6116 11.4507 27.4009 10.7792C27.1902 10.1077 26.8292 9.52368 26.3179 8.99818C25.7764 8.50185 25.1749 8.15151 24.4529 7.91801C23.7309 7.71368 22.8284 7.59668 21.7156 7.59668ZM20.9034 16.4433H8.69025V11.8885H20.9034C21.5951 11.8885 22.0764 12.0052 22.3171 12.2097C22.5577 12.414 22.7082 12.7935 22.7082 13.3483V14.9833C22.7082 15.5672 22.5577 15.9467 22.3171 16.151C22.0764 16.3553 21.5952 16.443 20.9034 16.443V16.4433Z" stroke="white" stroke-width="2" stroke-linecap="round" stroke-linejoin="round"/>
<path d="M27.3215 7.26299C28.2415 7.26299 28.9879 6.51682 28.9879 5.59632C28.9879 4.67582 28.2415 3.92966 27.3215 3.92966C26.4009 3.92966 25.6545 4.67582 25.6545 5.59632C25.6545 6.51682 26.4009 7.26299 27.3215 7.26299Z" fill="white"/>
</svg>
