<svg width="32" height="32" viewBox="0 0 32 32" fill="none" xmlns="http://www.w3.org/2000/svg">
<path d="M21.7156 7.5957H3.66675V27.0695H8.69025V20.734H18.3162L22.7082 27.0695H28.3333L23.4903 20.7049C24.9944 20.4714 26.0772 19.9165 26.7391 19.0407C27.4007 18.1649 27.7317 16.7634 27.7317 14.8949V13.435C27.7317 12.3255 27.6116 11.4497 27.4009 10.7782C27.1902 10.1067 26.8292 9.5227 26.3179 8.9972C25.7764 8.50087 25.1749 8.15054 24.4529 7.91704C23.7309 7.7127 22.8284 7.5957 21.7156 7.5957ZM20.9034 16.4424H8.69025V11.8875H20.9034C21.5951 11.8875 22.0764 12.0042 22.3171 12.2087C22.5577 12.413 22.7082 12.7925 22.7082 13.3474V14.9824C22.7082 15.5662 22.5577 15.9457 22.3171 16.15C22.0764 16.3544 21.5952 16.442 20.9034 16.442V16.4424Z" stroke="#1A1B22" stroke-width="2" stroke-linecap="round" stroke-linejoin="round"/>
<path d="M27.3215 7.26302C28.2415 7.26302 28.9879 6.51685 28.9879 5.59635C28.9879 4.67585 28.2415 3.92969 27.3215 3.92969C26.4009 3.92969 25.6545 4.67585 25.6545 5.59635C25.6545 6.51685 26.4009 7.26302 27.3215 7.26302Z" fill="#1A1B22"/>
</svg>
