<svg xmlns="http://www.w3.org/2000/svg" width="24" height="24" fill="none">
    <path fill="CurrentColor"
        d="M1 4.75h2.74a3.73 3.73 0 0 0 7.2 0H23a1 1 0 1 0 0-2H10.93a3.73 3.73 0 0 0-7.2 0H1a1 1 0 0 0 0 2ZM7.33 2a1.75 1.75 0 1 1 0 3.5 1.75 1.75 0 0 1 0-3.5ZM23 11h-2.74a3.73 3.73 0 0 0-7.19 0H1a1 1 0 0 0 0 2h12.07a3.73 3.73 0 0 0 7.2 0H23a1 1 0 1 0 0-2Zm-6.33 2.75a1.75 1.75 0 1 1 0-3.5 1.75 1.75 0 0 1 0 3.5ZM23 19.25H10.93a3.73 3.73 0 0 0-7.2 0H1a1 1 0 0 0 0 2h2.74a3.73 3.73 0 0 0 7.2 0H23a1 1 0 1 0 0-2ZM7.33 22a1.75 1.75 0 1 1 0-3.5 1.75 1.75 0 0 1 0 3.5Z" />
</svg>