<svg width="302" height="108" viewBox="0 0 302 108" fill="none" xmlns="http://www.w3.org/2000/svg">
<rect x="0.5" y="0.5" width="301" height="107" rx="4.5" stroke="#9747FF" stroke-dasharray="10 5"/>
<path fill-rule="evenodd" clip-rule="evenodd" d="M51.9997 25.3331C37.2956 25.3331 25.333 37.2953 25.333 51.9997C25.333 66.7042 37.2956 78.6664 51.9997 78.6664C66.7038 78.6664 78.6663 66.7042 78.6663 51.9997C78.6663 37.2953 66.7038 25.3331 51.9997 25.3331ZM72.5255 39.5553C74.7304 43.1819 75.9999 47.4441 75.9999 52C75.9999 56.5559 74.7304 60.8154 72.5255 64.4446C72.1246 65.1042 71.6917 65.7452 71.232 66.3594C70.7696 66.9763 70.2805 67.5691 69.7647 68.138C68.7331 69.2729 67.5919 70.3118 66.3598 71.2304C66.0525 71.4628 65.7371 71.6844 65.4191 71.9007C64.1416 72.766 62.7785 73.5084 61.3407 74.1119C60.9826 74.2668 60.6191 74.411 60.2529 74.5445C59.5153 74.8116 58.7643 75.0466 57.9972 75.2442C56.081 75.7383 54.0712 76 51.9999 76C38.7465 76 27.9999 65.2538 27.9999 52C27.9999 38.7462 38.7465 28 51.9999 28C54.0712 28 56.081 28.2617 57.9972 28.7557C58.7643 28.9534 59.5153 29.1857 60.2529 29.4581C60.6191 29.5916 60.9826 29.7331 61.3407 29.8854C62.7785 30.4916 64.1416 31.2367 65.4191 32.0992C65.7371 32.3155 66.0525 32.5372 66.3598 32.7695C67.5919 33.6909 68.7331 34.7244 69.7647 35.862C70.2805 36.4308 70.7696 37.0264 71.232 37.6406C71.6917 38.2575 72.1246 38.8957 72.5255 39.5553Z" fill="#01C843"/>
<path d="M48.4439 57.2253L43.2186 52C42.9685 51.75 42.6295 51.6096 42.2759 51.6096C41.9224 51.6096 41.5833 51.75 41.3333 52C41.0833 52.25 40.9429 52.5891 40.9429 52.9427C40.9429 53.2962 41.0833 53.6353 41.3333 53.8853L46.5586 59.1107C46.8062 59.3584 47.1002 59.5549 47.4238 59.689C47.7475 59.8231 48.0943 59.8921 48.4446 59.8921C48.7949 59.8921 49.1417 59.8231 49.4653 59.689C49.7889 59.5549 50.0829 59.3584 50.3306 59.1107L62.6666 46.7747C62.9165 46.5246 63.057 46.1856 63.057 45.832C63.057 45.4785 62.9165 45.1394 62.6666 44.8893C62.4165 44.6394 62.0775 44.499 61.7239 44.499C61.3704 44.499 61.0313 44.6394 60.7813 44.8893L48.4439 57.2253Z" fill="#01C843"/>
<path fill-rule="evenodd" clip-rule="evenodd" d="M151 25.3331C136.296 25.3331 124.333 37.2953 124.333 51.9997C124.333 66.7042 136.296 78.6664 151 78.6664C165.704 78.6664 177.666 66.7042 177.666 51.9997C177.666 37.2953 165.704 25.3331 151 25.3331ZM171.526 39.5553C173.73 43.1819 175 47.4441 175 52C175 56.5559 173.73 60.8154 171.526 64.4446C171.125 65.1042 170.692 65.7452 170.232 66.3594C169.77 66.9763 169.281 67.5691 168.765 68.138C167.733 69.2729 166.592 70.3118 165.36 71.2304C165.052 71.4628 164.737 71.6844 164.419 71.9007C163.142 72.766 161.779 73.5084 160.341 74.1119C159.983 74.2668 159.619 74.411 159.253 74.5445C158.515 74.8116 157.764 75.0466 156.997 75.2442C155.081 75.7383 153.071 76 151 76C137.746 76 127 65.2538 127 52C127 38.7462 137.746 28 151 28C153.071 28 155.081 28.2617 156.997 28.7557C157.764 28.9534 158.515 29.1857 159.253 29.4581C159.619 29.5916 159.983 29.7331 160.341 29.8854C161.779 30.4916 163.142 31.2367 164.419 32.0992C164.737 32.3155 165.052 32.5372 165.36 32.7695C166.592 33.6909 167.733 34.7244 168.765 35.862C169.281 36.4308 169.77 37.0264 170.232 37.6406C170.692 38.2575 171.125 38.8957 171.526 39.5553Z" fill="#FF0200"/>
<path d="M159.001 44.001C158.751 43.751 158.412 43.6106 158.058 43.6106C157.705 43.6106 157.366 43.751 157.116 44.001L151.001 50.1156L144.886 44.001C144.636 43.751 144.297 43.6106 143.944 43.6106C143.59 43.6106 143.251 43.751 143.001 44.001C142.751 44.251 142.611 44.5901 142.611 44.9436C142.611 45.2972 142.751 45.6363 143.001 45.8863L149.116 52.001L143.001 58.1156C142.751 58.3657 142.611 58.7048 142.611 59.0583C142.611 59.4119 142.751 59.7509 143.001 60.001C143.251 60.2509 143.59 60.3914 143.944 60.3914C144.297 60.3914 144.636 60.2509 144.886 60.001L151.001 53.8863L157.116 60.001C157.366 60.2509 157.705 60.3914 158.058 60.3914C158.412 60.3914 158.751 60.2509 159.001 60.001C159.251 59.7509 159.391 59.4119 159.391 59.0583C159.391 58.7048 159.251 58.3657 159.001 58.1156L152.886 52.001L159.001 45.8863C159.251 45.6363 159.391 45.2972 159.391 44.9436C159.391 44.5901 159.251 44.251 159.001 44.001Z" fill="#FF0200"/>
<path fill-rule="evenodd" clip-rule="evenodd" d="M250 25.3331C235.296 25.3331 223.333 37.2953 223.333 51.9997C223.333 66.7042 235.296 78.6664 250 78.6664C264.704 78.6664 276.666 66.7042 276.666 51.9997C276.666 37.2953 264.704 25.3331 250 25.3331ZM270.526 39.5553C272.73 43.1819 274 47.4441 274 52C274 56.5559 272.73 60.8154 270.526 64.4446C270.125 65.1042 269.692 65.7452 269.232 66.3594C268.77 66.9763 268.281 67.5691 267.765 68.138C266.733 69.2729 265.592 70.3118 264.36 71.2304C264.052 71.4628 263.737 71.6844 263.419 71.9007C262.142 72.766 260.779 73.5084 259.341 74.1119C258.983 74.2668 258.619 74.411 258.253 74.5445C257.515 74.8116 256.764 75.0466 255.997 75.2442C254.081 75.7383 252.071 76 250 76C236.746 76 226 65.2538 226 52C226 38.7462 236.746 28 250 28C252.071 28 254.081 28.2617 255.997 28.7557C256.764 28.9534 257.515 29.1857 258.253 29.4581C258.619 29.5916 258.983 29.7331 259.341 29.8854C260.779 30.4916 262.142 31.2367 263.419 32.0992C263.737 32.3155 264.052 32.5372 264.36 32.7695C265.592 33.6909 266.733 34.7244 267.765 35.862C268.281 36.4308 268.77 37.0264 269.232 37.6406C269.692 38.2575 270.125 38.8957 270.526 39.5553Z" fill="#065CF3"/>
<path d="M250.143 44C249.84 44 249.549 44.1204 249.335 44.3347C249.12 44.5491 249 44.8398 249 45.1429V54.2857C249 54.5888 249.12 54.8795 249.335 55.0938C249.549 55.3082 249.84 55.4286 250.143 55.4286C250.446 55.4286 250.737 55.3082 250.951 55.0938C251.165 54.8795 251.286 54.5888 251.286 54.2857V45.1429C251.286 44.8398 251.165 44.5491 250.951 44.3347C250.737 44.1204 250.446 44 250.143 44Z" fill="#065CF3"/>
<path d="M251.286 58.8572C251.286 58.226 250.774 57.7143 250.143 57.7143C249.512 57.7143 249 58.226 249 58.8572C249 59.4883 249.512 60 250.143 60C250.774 60 251.286 59.4883 251.286 58.8572Z" fill="#065CF3"/>
</svg>
