<svg width="64" height="64" viewBox="0 0 64 64" fill="none" xmlns="http://www.w3.org/2000/svg">
<path fill-rule="evenodd" clip-rule="evenodd" d="M31.9997 5.33307C17.2956 5.33307 5.33301 17.2953 5.33301 31.9997C5.33301 46.7042 17.2956 58.6664 31.9997 58.6664C46.7038 58.6664 58.6663 46.7042 58.6663 31.9997C58.6663 17.2953 46.7038 5.33307 31.9997 5.33307ZM52.5255 19.5553C54.7304 23.1819 55.9999 27.4441 55.9999 32C55.9999 36.5559 54.7304 40.8154 52.5255 44.4446C52.1246 45.1042 51.6917 45.7452 51.232 46.3594C50.7696 46.9763 50.2805 47.5691 49.7647 48.138C48.7331 49.2729 47.5919 50.3118 46.3598 51.2304C46.0525 51.4628 45.7371 51.6844 45.4191 51.9007C44.1416 52.766 42.7785 53.5084 41.3407 54.1119C40.9826 54.2668 40.6191 54.411 40.2529 54.5445C39.5153 54.8116 38.7643 55.0466 37.9972 55.2442C36.081 55.7383 34.0712 56 31.9999 56C18.7465 56 7.99992 45.2538 7.99992 32C7.99992 18.7462 18.7465 7.99998 31.9999 7.99998C34.0712 7.99998 36.081 8.26169 37.9972 8.75574C38.7643 8.95336 39.5153 9.18569 40.2529 9.45809C40.6191 9.59161 40.9826 9.73315 41.3407 9.88537C42.7785 10.4916 44.1416 11.2367 45.4191 12.0992C45.7371 12.3155 46.0525 12.5372 46.3598 12.7695C47.5919 13.6909 48.7331 14.7244 49.7647 15.862C50.2805 16.4308 50.7696 17.0264 51.232 17.6406C51.6917 18.2575 52.1246 18.8957 52.5255 19.5553Z" fill="#01C843"/>
<path d="M28.4439 37.2253L23.2186 32C22.9685 31.75 22.6295 31.6096 22.2759 31.6096C21.9224 31.6096 21.5833 31.75 21.3333 32C21.0833 32.25 20.9429 32.5891 20.9429 32.9427C20.9429 33.2962 21.0833 33.6353 21.3333 33.8853L26.5586 39.1107C26.8062 39.3584 27.1002 39.5549 27.4238 39.689C27.7475 39.8231 28.0943 39.8921 28.4446 39.8921C28.7949 39.8921 29.1417 39.8231 29.4653 39.689C29.7889 39.5549 30.0829 39.3584 30.3306 39.1107L42.6666 26.7747C42.9165 26.5246 43.057 26.1856 43.057 25.832C43.057 25.4785 42.9165 25.1394 42.6666 24.8893C42.4165 24.6394 42.0775 24.499 41.7239 24.499C41.3704 24.499 41.0313 24.6394 40.7813 24.8893L28.4439 37.2253Z" fill="#01C843"/>
</svg>
