<svg width="33" height="32" viewBox="0 0 33 32" fill="none" xmlns="http://www.w3.org/2000/svg">
<path fill-rule="evenodd" clip-rule="evenodd" d="M8.45961 18.6933C8.5169 18.7124 8.57581 18.7263 8.63561 18.7347C9.01284 19.6236 9.38796 20.5133 9.76095 21.404C10.4316 23.0067 11.1076 24.6573 11.2556 25.132C11.4409 25.716 11.6356 26.1133 11.8489 26.3853C11.9596 26.524 12.0863 26.6467 12.2356 26.74C12.3134 26.7887 12.3966 26.8281 12.4836 26.8573C12.9103 27.0173 13.2996 26.9507 13.5436 26.8693C13.6868 26.8205 13.823 26.7532 13.9489 26.6693L13.9556 26.6667L17.7236 24.3173L22.0769 27.6533C22.1409 27.7027 22.2103 27.744 22.2849 27.7773C22.8076 28.004 23.3143 28.084 23.7916 28.02C24.2663 27.9533 24.6436 27.7547 24.9249 27.5293C25.248 27.269 25.5055 26.9365 25.6769 26.5587L25.6889 26.5293L25.6929 26.5187L25.6956 26.5133V26.5107L25.6969 26.5093C25.7201 26.452 25.738 26.3926 25.7503 26.332L29.7236 6.29867C29.7362 6.23454 29.7424 6.16934 29.7423 6.104C29.7423 5.51734 29.5209 4.95867 29.0023 4.62134C28.5569 4.332 28.0623 4.31867 27.7489 4.34267C27.4129 4.36934 27.1009 4.452 26.8916 4.51867C26.7744 4.55581 26.6588 4.59762 26.5449 4.644L26.5303 4.65067L4.24495 13.392L4.24228 13.3933C4.16688 13.4211 4.0926 13.4518 4.01961 13.4853C3.8429 13.5648 3.67338 13.6594 3.51295 13.768C3.21028 13.9747 2.51295 14.5427 2.63161 15.4813C2.72495 16.228 3.23695 16.688 3.55028 16.9093C3.72095 17.0307 3.88361 17.1173 4.00361 17.1747C4.05695 17.2013 4.17161 17.2467 4.22095 17.268L4.23428 17.272L8.45961 18.6933ZM27.3103 6.49067H27.3076C27.2961 6.49576 27.2846 6.50065 27.2729 6.50534L4.96095 15.2587C4.94947 15.2633 4.93791 15.2678 4.92628 15.272L4.91295 15.276C4.87219 15.292 4.83215 15.3098 4.79295 15.3293C4.83006 15.3506 4.86834 15.3697 4.90761 15.3867L9.09695 16.7973C9.17181 16.8226 9.24342 16.8566 9.31028 16.8987L23.1463 8.79867L23.1596 8.792C23.2134 8.75934 23.2685 8.72909 23.3249 8.70134C23.4209 8.652 23.5743 8.58 23.7476 8.52667C23.8676 8.48934 24.2236 8.384 24.6076 8.508C24.8113 8.5722 24.9928 8.69239 25.1314 8.85483C25.2701 9.01727 25.3602 9.21543 25.3916 9.42667C25.4413 9.61167 25.4426 9.80632 25.3956 9.992C25.3023 10.3587 25.0463 10.644 24.8129 10.8627C24.6129 11.0493 22.0183 13.5507 19.4596 16.02L15.9756 19.38L15.3556 19.98L23.1849 25.9827C23.2906 26.027 23.4054 26.0453 23.5196 26.036C23.5772 26.0282 23.6313 26.0041 23.6756 25.9667C23.7297 25.921 23.776 25.867 23.8129 25.8067L23.8156 25.8053L27.6689 6.37467C27.5476 6.40387 27.4286 6.4422 27.3129 6.48934L27.3103 6.49067ZM16.0289 23.016L14.4663 21.8187L14.0876 24.2253L16.0289 23.016ZM13.0329 19.4427L14.5863 17.9427L18.0703 14.58L19.3676 13.3293L10.6743 18.4187L10.7209 18.528C11.2692 19.8232 11.8115 21.121 12.3476 22.4213L12.7249 20.0213C12.7591 19.7987 12.8677 19.5956 13.0329 19.4427Z" fill="white"/>
</svg>
