<svg width="32" height="32" viewBox="0 0 32 32" fill="none" xmlns="http://www.w3.org/2000/svg">
<path fill-rule="evenodd" clip-rule="evenodd" d="M7.71743 18.6927C7.77472 18.7118 7.83363 18.7256 7.89343 18.734C8.27066 19.6229 8.64577 20.5127 9.01876 21.4033C9.68943 23.006 10.3654 24.6567 10.5134 25.1313C10.6988 25.7153 10.8934 26.1127 11.1068 26.3847C11.2174 26.5233 11.3441 26.646 11.4934 26.7393C11.5712 26.788 11.6545 26.8274 11.7414 26.8567C12.1681 27.0167 12.5574 26.95 12.8014 26.8687C12.9446 26.8198 13.0809 26.7526 13.2068 26.6687L13.2134 26.666L16.9814 24.3167L21.3348 27.6527C21.3988 27.702 21.4681 27.7433 21.5428 27.7767C22.0654 28.0033 22.5721 28.0833 23.0494 28.0193C23.5241 27.9527 23.9014 27.754 24.1828 27.5287C24.5058 27.2683 24.7634 26.9359 24.9348 26.558L24.9468 26.5287L24.9508 26.518L24.9534 26.5127V26.51L24.9548 26.5087C24.9779 26.4513 24.9958 26.392 25.0081 26.3313L28.9814 6.298C28.994 6.23387 29.0002 6.16867 29.0001 6.10333C29.0001 5.51666 28.7788 4.958 28.2601 4.62066C27.8148 4.33133 27.3201 4.318 27.0068 4.342C26.6708 4.36866 26.3588 4.45133 26.1494 4.518C26.0322 4.55514 25.9166 4.59695 25.8028 4.64333L25.7881 4.65L3.50276 13.3913L3.50009 13.3927C3.42469 13.4204 3.35041 13.4511 3.27743 13.4847C3.10071 13.5641 2.93119 13.6587 2.77076 13.7673C2.46809 13.974 1.77076 14.542 1.88943 15.4807C1.98276 16.2273 2.49476 16.6873 2.80809 16.9087C2.97876 17.03 3.14143 17.1167 3.26143 17.174C3.31476 17.2007 3.42943 17.246 3.47876 17.2673L3.49209 17.2713L7.71743 18.6927ZM26.5681 6.49H26.5654C26.554 6.49509 26.5424 6.49998 26.5308 6.50466L4.21876 15.258C4.20728 15.2626 4.19572 15.2671 4.18409 15.2713L4.17076 15.2753C4.13 15.2913 4.08996 15.3091 4.05076 15.3287C4.08787 15.3499 4.12616 15.3691 4.16543 15.386L8.35476 16.7967C8.42962 16.8219 8.50124 16.8559 8.56809 16.898L22.4041 8.798L22.4174 8.79133C22.4712 8.75867 22.5263 8.72842 22.5828 8.70066C22.6788 8.65133 22.8321 8.57933 23.0054 8.526C23.1254 8.48866 23.4814 8.38333 23.8654 8.50733C24.0691 8.57153 24.2506 8.69171 24.3893 8.85416C24.5279 9.0166 24.618 9.21476 24.6494 9.426C24.6991 9.611 24.7005 9.80564 24.6534 9.99133C24.5601 10.358 24.3041 10.6433 24.0708 10.862C23.8708 11.0487 21.2761 13.55 18.7174 16.0193L15.2334 19.3793L14.6134 19.9793L22.4428 25.982C22.5484 26.0264 22.6632 26.0446 22.7774 26.0353C22.835 26.0275 22.8891 26.0035 22.9334 25.966C22.9875 25.9204 23.0339 25.8663 23.0708 25.806L23.0734 25.8047L26.9268 6.374C26.8054 6.40319 26.6864 6.44153 26.5708 6.48866L26.5681 6.49ZM15.2868 23.0153L13.7241 21.818L13.3454 24.2247L15.2868 23.0153ZM12.2908 19.442L13.8441 17.942L17.3281 14.5793L18.6254 13.3287L9.93209 18.418L9.97876 18.5273C10.527 19.8226 11.0693 21.1204 11.6054 22.4207L11.9828 20.0207C12.0169 19.7981 12.1255 19.595 12.2908 19.442Z" fill="#1A1B22"/>
</svg>
