<svg width="32" height="32" viewBox="0 0 32 32" fill="none" xmlns="http://www.w3.org/2000/svg">
<path fill-rule="evenodd" clip-rule="evenodd" d="M31.2066 22.4867C30.4813 21.0259 29.5255 19.6915 28.3759 18.5347C27.9914 18.1002 27.5889 17.682 27.1693 17.2813L27.1186 17.232C26.9628 17.0812 26.809 16.9282 26.6573 16.7733C28.2288 14.5877 29.5735 12.2476 30.6706 9.78935L30.7146 9.69068L30.7453 9.58668C30.8906 9.10268 31.0559 8.18268 30.4692 7.35068C29.8612 6.49201 28.8892 6.33735 28.2372 6.33735H25.2413C24.6139 6.30876 23.9936 6.47934 23.4692 6.82469C22.9447 7.17004 22.5429 7.67244 22.3212 8.26001C21.6765 9.79553 20.8692 11.2576 19.9133 12.6213V9.11068C19.9133 8.65735 19.8706 7.89735 19.3839 7.25735C18.8026 6.48935 17.9613 6.33735 17.3773 6.33735H12.6226C12.0022 6.32307 11.4 6.54796 10.9408 6.96545C10.4816 7.38293 10.2006 7.96102 10.1559 8.58001L10.1519 8.64001V8.70001C10.1519 9.34668 10.4079 9.82401 10.6133 10.124C10.7053 10.2587 10.8026 10.3813 10.8653 10.4587L10.8786 10.476C10.9453 10.5587 10.9893 10.6133 11.0333 10.6747C11.1506 10.832 11.3173 11.0773 11.3653 11.7093V13.6733C10.4108 12.0751 9.62824 10.3803 9.03058 8.61735L9.01992 8.58801L9.00925 8.56001C8.84658 8.13468 8.58658 7.51601 8.06525 7.04401C7.45725 6.49068 6.73725 6.33735 6.08258 6.33735H3.04259C2.37992 6.33735 1.58125 6.49201 0.985252 7.12001C0.399919 7.73868 0.333252 8.48001 0.333252 8.87201V9.05068L0.370585 9.22401C1.21232 13.1317 2.9469 16.7916 5.43858 19.9173C6.57775 21.7138 8.1243 23.2164 9.95278 24.3033C11.7813 25.3903 13.8402 26.0309 15.9626 26.1733L16.0173 26.1773H16.0733C17.0413 26.1773 18.0506 26.0933 18.8093 25.588C19.8319 24.9053 19.9133 23.8587 19.9133 23.336V21.8187C20.1759 22.032 20.5013 22.3173 20.8999 22.7013C21.3826 23.184 21.7666 23.6027 22.0959 23.968L22.2719 24.1627C22.5279 24.448 22.7799 24.7293 23.0093 24.96C23.2973 25.2493 23.6532 25.568 24.0986 25.804C24.5826 26.0587 25.0906 26.1747 25.6293 26.1747H28.6706C29.3119 26.1747 30.2306 26.0227 30.8773 25.2733C31.5813 24.4573 31.5279 23.456 31.3066 22.7373L31.2666 22.608L31.2066 22.4867ZM23.5799 22.628C23.1667 22.1661 22.7412 21.7153 22.3039 21.276L22.2999 21.272C20.4906 19.528 19.6466 19.2253 19.0492 19.2253C18.7306 19.2253 18.3799 19.26 18.1519 19.5453C18.0493 19.6815 17.9819 19.8409 17.9559 20.0093C17.9238 20.205 17.9095 20.4031 17.9133 20.6013V23.336C17.9133 23.676 17.8573 23.8187 17.6999 23.9227C17.4906 24.0627 17.0439 24.176 16.0853 24.176C14.2642 24.0521 12.4986 23.4977 10.9335 22.5585C9.36842 21.6193 8.04861 20.322 7.08258 18.7733L7.07192 18.756L7.05859 18.74C4.73741 15.8509 3.11971 12.4617 2.33325 8.84001C2.33859 8.66668 2.37592 8.56135 2.43725 8.49735C2.49992 8.43068 2.65325 8.33735 3.04259 8.33735H6.08258C6.41992 8.33735 6.59592 8.41201 6.72258 8.52535C6.86392 8.65601 6.98925 8.87601 7.13859 9.26801C7.88525 11.4627 8.89325 13.516 9.84925 15.0253C10.3266 15.7787 10.7959 16.4067 11.2199 16.8507C11.4319 17.072 11.6386 17.256 11.8373 17.3867C12.0279 17.512 12.2453 17.612 12.4693 17.612C12.5866 17.612 12.7239 17.5987 12.8559 17.5413C12.9985 17.4784 13.1158 17.3695 13.1893 17.232C13.3266 16.9813 13.3653 16.612 13.3653 16.128V11.6307C13.2946 10.54 12.9653 9.92535 12.6453 9.48935C12.5804 9.40214 12.5138 9.31634 12.4453 9.23201L12.4279 9.21068C12.3711 9.14162 12.3168 9.07046 12.2653 8.99735C12.1996 8.91581 12.1601 8.81636 12.1519 8.71201C12.1624 8.60606 12.2129 8.50811 12.2932 8.43822C12.3736 8.36832 12.4775 8.33176 12.5839 8.33601H17.3773C17.6519 8.33601 17.7439 8.40268 17.7906 8.46535C17.8573 8.55201 17.9133 8.73201 17.9133 9.11068V15.148C17.9133 15.8653 18.2439 16.3507 18.7239 16.3507C19.2759 16.3507 19.6746 16.016 20.3706 15.32L20.3826 15.3067L20.3933 15.2947C21.9545 13.3911 23.2302 11.2701 24.1799 8.99868L24.1853 8.98268C24.2566 8.78199 24.3917 8.61016 24.5698 8.49341C24.748 8.37665 24.9594 8.32137 25.1719 8.33601H28.2386C28.6546 8.33601 28.7906 8.44268 28.8359 8.50535C28.8826 8.57201 28.9159 8.71468 28.8359 8.99468C27.7407 11.4432 26.3868 13.7675 24.7973 15.928L24.7866 15.944C24.6333 16.18 24.4639 16.4413 24.4399 16.74C24.4132 17.0627 24.5519 17.3547 24.7959 17.6693C24.9733 17.9307 25.3399 18.2893 25.7119 18.6533L25.7466 18.688C26.1359 19.0693 26.5586 19.4827 26.8973 19.8827L26.9066 19.892L26.9159 19.9027C27.9258 20.91 28.7656 22.0744 29.4026 23.3507C29.5039 23.6973 29.4426 23.876 29.3626 23.968C29.2706 24.0747 29.0639 24.1747 28.6719 24.1747H25.6293C25.4219 24.1797 25.2167 24.1315 25.0333 24.0347C24.8084 23.9039 24.6044 23.7403 24.4279 23.5493C24.2372 23.3587 24.0306 23.128 23.7773 22.8467L23.5799 22.628Z" fill="white"/>
</svg>
