<svg width="32" height="32" viewBox="0 0 32 32" fill="none" xmlns="http://www.w3.org/2000/svg">
<path d="M20.9915 18.0397C20.602 17.6186 20.1646 17.2444 19.6882 16.9249C21.6105 15.4386 22.9577 13.3315 23.4999 10.9629C23.5399 10.7917 23.5457 10.6143 23.5169 10.4409C23.4881 10.2675 23.4253 10.1015 23.3321 9.95244C23.239 9.80339 23.1172 9.67424 22.9739 9.57242C22.8306 9.4706 22.6686 9.39812 22.4972 9.35915C22.3258 9.32018 22.1483 9.31549 21.9751 9.34535C21.8019 9.37521 21.6363 9.43903 21.4878 9.53314C21.3393 9.62725 21.2109 9.74979 21.11 9.89371C21.009 10.0376 20.9376 10.2001 20.8997 10.3717C20.6471 11.4797 20.1559 12.5192 19.4604 13.4179C18.7648 14.3165 17.8816 15.0526 16.8723 15.5748V10.67C16.8641 10.5719 16.8445 10.475 16.8141 10.3814C16.8052 10.3043 16.7898 10.2281 16.7681 10.1536C16.7112 10.0324 16.6362 9.92047 16.5457 9.82176C16.5218 9.79344 16.5098 9.75609 16.4837 9.72989C16.386 9.63972 16.2755 9.56464 16.1556 9.50714C16.1216 9.489 16.0963 9.45832 16.0605 9.44314C15.9584 9.40911 15.8526 9.38734 15.7453 9.37828C15.6791 9.3589 15.6114 9.34499 15.5429 9.33669L14.6705 9.33398H14.6666C14.3547 9.33249 14.0522 9.44093 13.8123 9.64026C13.5723 9.83958 13.4103 10.1171 13.3546 10.424C13.2989 10.7309 13.3531 11.0476 13.5076 11.3185C13.6622 11.5895 13.9072 11.7973 14.1998 11.9055V18.4264C12.0869 16.2331 10.6878 13.4513 10.1868 10.4473C10.1575 10.2747 10.0946 10.1095 10.0015 9.96125C9.90843 9.81296 9.78706 9.68446 9.64433 9.58308C9.50159 9.48169 9.34029 9.40942 9.16962 9.37038C8.99895 9.33133 8.82227 9.32629 8.64965 9.35553C8.47704 9.38477 8.31187 9.44773 8.16358 9.5408C8.01529 9.63387 7.88679 9.75524 7.78541 9.89797C7.68403 10.0407 7.61175 10.202 7.57271 10.3727C7.53367 10.5433 7.52862 10.72 7.55786 10.8926C8.33705 15.5361 10.9264 19.6808 14.7577 22.4174C14.8124 22.4501 14.8693 22.4788 14.9281 22.5033C14.9743 22.5304 15.0222 22.5546 15.0715 22.5756C15.2203 22.6351 15.3787 22.6671 15.539 22.67C15.7351 22.6676 15.9282 22.6212 16.1041 22.5342C16.1173 22.5279 16.1326 22.5308 16.1458 22.5242C16.2636 22.4628 16.3715 22.384 16.4659 22.2904C16.4849 22.272 16.4976 22.2493 16.5155 22.2297C16.6015 22.1352 16.6733 22.0287 16.7287 21.9135C16.7472 21.8752 16.7642 21.8387 16.7791 21.7985C16.8376 21.6514 16.8692 21.495 16.8723 21.3367L16.873 18.502C17.6991 18.7446 18.4435 19.2078 19.026 19.8418L21.2232 22.2376C21.3414 22.3671 21.484 22.472 21.6428 22.5463C21.8016 22.6206 21.9735 22.6628 22.1486 22.6706C22.3238 22.6783 22.4987 22.6515 22.6635 22.5915C22.8282 22.5316 22.9795 22.4397 23.1087 22.3212C23.2379 22.2028 23.3425 22.0599 23.4164 21.901C23.4903 21.742 23.5322 21.57 23.5396 21.3949C23.5469 21.2197 23.5197 21.0448 23.4594 20.8802C23.399 20.7156 23.3069 20.5645 23.1881 20.4356L20.9915 18.0397ZM20.0969 1.33398H11.9166C3.70695 1.33398 1.33325 3.70508 1.33325 11.903V20.084C1.33325 28.2936 3.70369 30.6673 11.9029 30.6673H20.0833C28.2929 30.6673 30.6666 28.2962 30.6666 20.0983V11.9173C30.6666 3.70768 28.2961 1.33398 20.0969 1.33398ZM27.9999 20.0983C27.9999 26.8184 26.8163 28.0006 20.0833 28.0006H11.9029C5.18156 28.0006 3.99992 26.817 3.99992 20.084V11.903C3.99992 5.18294 5.18352 4.00065 11.9166 4.00065H20.0969C26.8183 4.00065 27.9999 5.18425 27.9999 11.9173V20.0983Z" fill="#1A1B22"/>
</svg>
