<svg width="24" height="24" viewBox="0 0 24 24" fill="none" xmlns="http://www.w3.org/2000/svg">
<path d="M2.04004 12C2.04004 6.477 6.51604 2 12.04 2C17.562 2 22.04 6.477 22.04 12C22.04 17.523 17.562 22 12.04 22C6.51604 22 2.04004 17.523 2.04004 12Z" fill="#FC3F1D"/>
<path d="M13.32 7.666H12.396C10.702 7.666 9.81099 8.524 9.81099 9.789C9.81099 11.219 10.427 11.889 11.692 12.748L12.737 13.452L9.73399 17.939H7.48999L10.185 13.925C8.63499 12.814 7.76499 11.735 7.76499 9.91C7.76499 7.622 9.35999 6.06 12.385 6.06H15.388V17.928H13.32V7.666Z" fill="white"/>
</svg>
